<svg width="24" height="24" viewBox="0 0 24 24" fill="none">
  <path d="M22 5.92C21.26 6.24 20.46 6.46 19.62 6.56C20.48 6.04 21.12 5.22 21.44 4.26C20.64 4.74 19.76 5.08 18.82 5.26C18.06 4.44 16.98 4 15.82 4C13.5 4 11.62 5.88 11.62 8.2C11.62 8.52 11.64 8.82 11.7 9.12C8.28 8.94 5.22 7.28 3.06 4.74C2.7 5.36 2.5 6.08 2.5 6.86C2.5 8.36 3.28 9.68 4.46 10.44C3.78 10.42 3.14 10.24 2.56 9.94V10C2.56 12.14 4.1 13.94 6.12 14.36C5.7 14.48 5.26 14.54 4.8 14.54C4.46 14.54 4.14 14.52 3.82 14.46C4.48 16.22 6.14 17.5 8.12 17.54C6.58 18.72 4.64 19.42 2.56 19.42C2.18 19.42 1.82 19.4 1.46 19.36C3.46 20.62 5.82 21.34 8.36 21.34C15.82 21.34 20.14 14.6 20.14 8.72C20.14 8.54 20.14 8.36 20.12 8.18C20.94 7.56 21.62 6.82 22 5.92Z" fill="#1DA1F2"/>
</svg>
